<?xml version="1.0" encoding="UTF-8"?>
<!DOCTYPE svg PUBLIC "-//W3C//DTD SVG 1.1//EN" "http://www.w3.org/Graphics/SVG/1.1/DTD/svg11.dtd">
<!-- Creator: CorelDRAW 2017 -->
<svg xmlns="http://www.w3.org/2000/svg" xml:space="preserve" width="6.16667in" height="6.16667in" version="1.1" style="shape-rendering:geometricPrecision; text-rendering:geometricPrecision; image-rendering:optimizeQuality; fill-rule:evenodd; clip-rule:evenodd"
viewBox="0 0 944 944"
 xmlns:xlink="http://www.w3.org/1999/xlink">
 <defs>
  <style type="text/css">
   <![CDATA[
    .fil0 {fill:#660066}
    .fil1 {fill:white;fill-rule:nonzero}
   ]]>
  </style>
 </defs>
 <g id="Layer_x0020_1">
  <metadata id="CorelCorpID_0Corel-Layer"/>
  <g id="_2464742797904">
   <rect class="fil0" width="944" height="944"/>
   <g>
    <path class="fil1" d="M403 457l43 -76 29 0 -72 131 -21 0 -4 -65 20 -41 5 51zm-65 55l-21 0 -17 -131 28 0 11 76 38 -76 26 0 -64 131zm202 -9l3 9 -108 0 93 -131 18 0 37 131 -29 0 -28 -107 -70 97 83 0zm125 -122l29 0 -65 85 -10 46 -27 0 10 -46 -28 -85 29 0 19 56 43 -56z"/>
    <g>
     <path class="fil1" d="M253 538c0,0 0,0 0,0 0,0 0,0 -1,0 -3,0 -6,1 -8,2 -2,1 -3,4 -4,6l13 0 0 3 -13 0c0,3 2,5 4,7 2,2 5,2 8,2 0,0 1,0 1,0 0,0 0,0 1,0l0 3 -1 0c-2,0 -4,0 -5,0 -2,0 -3,-1 -4,-1 -2,-1 -4,-3 -5,-5 -1,-2 -2,-4 -2,-7 0,-3 1,-5 2,-7 1,-2 3,-4 5,-5 1,-1 2,-1 4,-1 2,0 3,0 5,0l1 0 0 3zm22 -3l0 17c0,2 0,3 0,4 0,1 0,2 -1,2 -1,2 -2,3 -3,4 -2,1 -3,1 -5,1 -3,0 -5,-1 -7,-3 -2,-2 -3,-4 -3,-7 0,-1 0,-3 1,-4 0,-1 1,-2 2,-3 1,-1 2,-2 3,-2 1,-1 2,-1 4,-1 1,0 2,0 3,0 1,0 2,1 2,1l0 4c-1,-1 -2,-1 -2,-1 -1,0 -2,0 -2,0 -2,0 -3,1 -4,2 -1,1 -2,3 -2,5 0,2 1,3 2,5 1,1 3,2 4,2 2,0 3,-1 4,-2 1,-1 2,-3 2,-5l0 -18 3 0zm20 9l0 10c0,3 -1,5 -2,7 -1,2 -3,2 -6,2 -2,0 -4,-1 -6,-2 -1,-2 -2,-4 -2,-7l0 -10 3 0 0 11c0,2 0,3 1,4 1,1 2,1 3,1 1,0 3,0 3,-1 1,-1 1,-2 1,-4l0 -11 3 0zm16 3l-1 0c-2,0 -4,1 -6,2 -1,1 -2,3 -2,5 0,2 1,3 2,5 1,1 3,2 6,2l1 0 0 3 -2 0c-3,0 -6,-1 -8,-3 -2,-2 -3,-4 -3,-7 0,-2 0,-3 1,-4 1,-1 2,-2 3,-3 1,-1 2,-1 3,-1 1,0 2,0 4,0l2 0 0 3zm18 16l0 -9c0,-2 -1,-4 -2,-5 -1,-1 -3,-2 -4,-2 -2,0 -3,1 -4,2 -1,1 -2,3 -2,5 0,2 1,4 2,5 1,1 3,2 4,2 1,0 2,0 2,0 1,0 2,-1 2,-1l0 4c-1,0 -2,1 -2,1 -1,0 -2,0 -3,0 -1,0 -2,0 -3,0 -1,0 -2,-1 -2,-1 -1,-1 -2,-2 -3,-4 -1,-1 -1,-3 -1,-5 0,-3 1,-5 3,-7 2,-2 4,-3 7,-3 2,0 3,0 5,1 2,1 3,2 3,4 0,1 1,2 1,2 0,1 0,2 0,4l0 8 -3 0zm8 -24l3 0 0 5 6 0 0 3 -6 0 0 8c0,2 0,3 1,3 1,1 2,1 4,1l1 0 0 3 -1 0c-3,0 -5,-1 -6,-2 -1,-1 -2,-3 -2,-5l0 -17zm13 24l0 -19 3 0 0 19 -3 0zm0 -24c0,-1 0,-1 1,-1 0,0 1,-1 1,-1 1,0 1,0 1,1 0,0 1,1 1,1 0,1 0,1 -1,1 0,0 -1,1 -1,1 -1,0 -1,0 -1,-1 0,0 -1,-1 -1,-1zm11 15c0,2 1,3 2,5 1,1 3,2 4,2 2,0 3,-1 4,-2 1,-1 2,-3 2,-5 0,-2 -1,-3 -2,-5 -1,-1 -3,-2 -4,-2 -2,0 -3,1 -4,2 -1,1 -2,3 -2,5zm-4 0c0,-1 0,-3 1,-4 0,-1 1,-2 2,-3 1,-1 2,-2 3,-2 1,0 2,-1 4,-1 1,0 3,0 4,1 1,0 2,1 3,2 1,1 2,2 2,3 0,1 1,2 1,4 0,1 0,3 -1,4 0,1 -1,2 -2,3 -1,1 -2,2 -3,2 -1,0 -2,1 -4,1 -1,0 -3,0 -4,-1 -1,0 -2,-1 -3,-2 -1,-1 -2,-2 -2,-3 0,-1 -1,-2 -1,-4zm22 10l0 -10c0,-3 1,-5 2,-7 1,-2 3,-2 6,-2 2,0 4,1 6,2 1,2 2,4 2,7l0 10 -3 0 0 -11c0,-1 0,-3 -1,-4 -1,-1 -2,-1 -3,-1 -1,0 -2,0 -3,1 -1,1 -1,2 -1,4l0 11 -3 0zm32 0l0 -28 4 0 0 28 -4 0zm8 0l0 -10c0,-3 1,-5 2,-7 1,-2 3,-2 6,-2 2,0 4,1 6,2 1,2 2,4 2,7l0 10 -3 0 0 -11c0,-1 0,-3 -1,-4 -1,-1 -2,-1 -3,-1 -1,0 -2,0 -3,1 -1,1 -1,2 -1,4l0 11 -3 0zm21 0l0 -19 3 0 0 19 -3 0zm0 -24c0,-1 0,-1 1,-1 0,0 1,-1 1,-1 1,0 1,0 1,1 0,0 1,1 1,1 0,1 0,1 -1,1 0,0 -1,1 -1,1 -1,0 -1,0 -1,-1 0,0 -1,-1 -1,-1zm8 0l3 0 0 5 6 0 0 3 -6 0 0 8c0,2 0,3 1,3 1,1 2,1 4,1l1 0 0 3 -1 0c-3,0 -5,-1 -6,-2 -1,-1 -2,-3 -2,-5l0 -17zm13 24l0 -19 3 0 0 19 -3 0zm0 -24c0,-1 0,-1 1,-1 0,0 1,-1 1,-1 1,0 1,0 1,1 0,0 1,1 1,1 0,1 0,1 -1,1 0,0 -1,1 -1,1 -1,0 -1,0 -1,-1 0,0 -1,-1 -1,-1zm23 24l0 -9c0,-2 -1,-4 -2,-5 -1,-1 -3,-2 -4,-2 -2,0 -3,1 -4,2 -1,1 -2,3 -2,5 0,2 1,4 2,5 1,1 3,2 4,2 1,0 2,0 2,0 1,0 2,-1 2,-1l0 4c-1,0 -2,1 -2,1 -1,0 -2,0 -3,0 -1,0 -2,0 -3,0 -1,0 -2,-1 -2,-1 -1,-1 -2,-2 -3,-4 -1,-1 -1,-3 -1,-5 0,-3 1,-5 3,-7 2,-2 4,-3 7,-3 2,0 3,0 5,1 2,1 3,2 3,4 0,1 1,2 1,2 0,1 0,2 0,4l0 8 -3 0zm8 -24l3 0 0 5 6 0 0 3 -6 0 0 8c0,2 0,3 1,3 1,1 2,1 4,1l1 0 0 3 -1 0c-3,0 -5,-1 -6,-2 -1,-1 -2,-3 -2,-5l0 -17zm13 24l0 -19 3 0 0 19 -3 0zm0 -24c0,-1 0,-1 1,-1 0,0 1,-1 1,-1 1,0 1,0 1,1 0,0 1,1 1,1 0,1 0,1 -1,1 0,0 -1,1 -1,1 -1,0 -1,0 -1,-1 0,0 -1,-1 -1,-1zm10 5l5 15 5 -15 4 0 -6 17c0,1 -1,1 -1,2 0,0 -1,1 -2,1 -1,0 -1,0 -2,-1 0,0 -1,-1 -1,-2l-6 -17 3 0zm35 11c0,3 -2,5 -3,6 -2,2 -4,2 -6,2 -1,0 -2,0 -2,0 -1,0 -2,-1 -2,-1 -2,-1 -3,-2 -4,-4 -1,-1 -1,-3 -1,-5 0,-1 0,-3 1,-4 0,-1 1,-2 2,-3 1,-1 2,-2 3,-2 1,0 2,-1 4,-1 2,0 4,1 5,2 2,1 3,2 4,4l-12 7 -1 -3 9 -5c-1,-1 -1,-1 -2,-1 -1,0 -1,0 -2,0 -2,0 -3,1 -4,2 -1,1 -2,3 -2,5 0,2 1,3 2,5 1,1 3,2 4,2 2,0 3,-1 4,-2 1,-1 2,-3 2,-4l3 1zm3 5l8 0c1,0 1,0 2,0 0,0 1,-1 1,-1 0,0 0,-1 -1,-1 0,0 -1,-1 -2,-1l-3 -1c-2,-1 -3,-2 -4,-2 -1,-1 -1,-2 -1,-3 0,-2 1,-3 2,-4 1,-1 3,-1 5,-1l7 0 0 3 -8 0c-1,0 -1,0 -2,0 0,0 -1,1 -1,1 0,0 0,1 0,1 0,0 1,1 2,1l3 1c2,1 4,2 4,3 1,1 1,2 1,3 0,2 -1,3 -2,4 -1,1 -3,1 -6,1l-6 0 0 -3zm29 3l0 -17c0,-2 0,-3 0,-4 0,-1 1,-2 1,-3 1,-1 2,-3 3,-3 1,-1 3,-1 5,-1 3,0 5,1 6,3 2,2 3,4 3,6 0,3 -1,5 -3,6 -2,2 -4,3 -7,3l-4 0 0 -3 3 0c2,0 3,-1 4,-2 1,-1 2,-2 2,-4 0,-2 -1,-3 -2,-4 -1,-1 -2,-2 -4,-2 -2,0 -3,1 -4,2 -1,1 -1,3 -1,5l0 18 -4 0zm23 -19l5 15 5 -15 4 0 -6 17c0,1 -1,1 -1,2 0,0 -1,1 -2,1 -1,0 -1,0 -2,-1 0,0 -1,-1 -1,-2l-6 -17 3 0zm16 -5l3 0 0 5 6 0 0 3 -6 0 0 8c0,2 0,3 1,3 1,1 2,1 4,1l1 0 0 3 -1 0c-3,0 -5,-1 -6,-2 -1,-1 -2,-3 -2,-5l0 -17zm13 22c0,-1 0,-1 1,-2 0,0 1,-1 2,-1 1,0 1,0 2,1 0,0 1,1 1,2 0,1 0,1 -1,2 0,0 -1,1 -2,1 -1,0 -1,0 -2,-1 0,0 -1,-1 -1,-2zm21 -26l4 0 0 19c0,2 0,3 1,4 1,1 2,1 4,1l5 0 0 3 -4 0c-3,0 -6,-1 -7,-2 -2,-2 -2,-4 -2,-7l0 -18zm16 4l3 0 0 5 6 0 0 3 -6 0 0 8c0,2 0,3 1,3 1,1 2,1 4,1l1 0 0 3 -1 0c-3,0 -5,-1 -6,-2 -1,-1 -2,-3 -2,-5l0 -17zm31 -4l0 17c0,2 0,3 0,4 0,1 0,2 -1,2 -1,2 -2,3 -3,4 -2,1 -3,1 -5,1 -3,0 -5,-1 -7,-3 -2,-2 -3,-4 -3,-7 0,-1 0,-3 1,-4 0,-1 1,-2 2,-3 1,-1 2,-2 3,-2 1,-1 2,-1 4,-1 1,0 2,0 3,0 1,0 2,1 2,1l0 4c-1,-1 -2,-1 -2,-1 -1,0 -2,0 -2,0 -2,0 -3,1 -4,2 -1,1 -2,3 -2,5 0,2 1,3 2,5 1,1 3,2 4,2 2,0 3,-1 4,-2 1,-1 2,-3 2,-5l0 -18 3 0zm5 26c0,-1 0,-1 1,-2 0,0 1,-1 2,-1 1,0 1,0 2,1 0,0 1,1 1,2 0,1 0,1 -1,2 0,0 -1,1 -2,1 -1,0 -1,0 -2,-1 0,0 -1,-1 -1,-2z"/>
     <path class="fil1" d="M403 457l43 -76 29 0 -72 131 -21 0 -4 -65 20 -41 5 51zm-65 55l-21 0 -17 -131 28 0 11 76 38 -76 26 0 -64 131zm202 -9l3 9 -108 0 93 -131 18 0 37 131 -29 0 -28 -107 -70 97 83 0zm125 -122l29 0 -65 85 -10 46 -27 0 10 -46 -28 -85 29 0 19 56 43 -56z"/>
    </g>
   </g>
  </g>
 </g>
</svg>
